<svg width="35" height="35" viewBox="0 0 35 35" fill="none" xmlns="http://www.w3.org/2000/svg">
<path d="M21.494 10.3735L17.4997 14.3673L13.506 10.3735L10.3736 13.5064L14.3673 17.5002L10.3736 21.494L13.506 24.6269L17.4997 20.6331L21.494 24.6269L24.6264 21.494L20.6327 17.5002L24.6269 13.5064L21.494 10.3735Z" fill="white"/>
<path d="M29.8741 5.12641C26.713 1.96191 22.3267 -0.000546761 17.5003 1.14268e-07C12.6734 -0.000546761 8.28652 1.96191 5.12586 5.12641C1.96191 8.28707 -0.00116159 12.6734 5.15677e-07 17.5003C-0.00116159 22.3266 1.96191 26.7129 5.12586 29.8741C8.28646 33.0386 12.6733 35.0016 17.5003 35C22.3267 35.0016 26.713 33.0386 29.8741 29.8741C33.0382 26.7129 35.0005 22.3267 35 17.5003C35.0005 12.6734 33.0382 8.28707 29.8741 5.12641ZM27.2568 27.2567C24.754 29.7568 21.3158 31.2968 17.5003 31.2984C13.6836 31.2968 10.2461 29.7568 7.74382 27.2567C5.24378 24.7539 3.7033 21.3158 3.70214 17.5003C3.70323 13.6836 5.24378 10.2472 7.74382 7.74382C10.2462 5.24433 13.6837 3.70323 17.5003 3.70269C21.3158 3.70323 24.754 5.24433 27.2568 7.74382C29.7562 10.2473 31.2968 13.6837 31.2979 17.5003C31.2968 21.3158 29.7562 24.7539 27.2568 27.2567Z" fill="white"/>
</svg>
