<!--?xml version="1.0" encoding="utf-8"?-->
<!-- Generator: Adobe Illustrator 18.1.1, SVG Export Plug-In . SVG Version: 6.00 Build 0)  -->

<svg version="1.1" id="_x32_" xmlns="http://www.w3.org/2000/svg" xmlns:xlink="http://www.w3.org/1999/xlink" x="0px" y="0px" viewBox="0 0 512 512" style="width: 32px; height: 32px; opacity: 1;" xml:space="preserve">
<style type="text/css">
	.st0{fill:#4B4B4B;}
</style>
<g>
	<path class="st0" d="M473.011,375.511c-38.747-43.917-67.042-112.569-70.525-178.448c-2.212-41.747-37.67-115.781-111.39-134.116
		c3.899-6.315,6.196-13.749,6.188-21.666c0.008-11.35-4.637-21.768-12.088-29.194C277.771,4.637,267.353-0.008,256.003,0
		c-11.359-0.008-21.768,4.637-29.193,12.088c-7.451,7.426-12.096,17.844-12.088,29.194c-0.008,7.917,2.289,15.351,6.188,21.666
		c-73.729,18.335-109.178,92.369-111.39,134.116c-3.492,65.879-31.778,134.531-70.533,178.448
		c-25.531,28.938,81.383,73.194,217.016,73.194S498.55,404.449,473.011,375.511z M263.276,48.554
		c-1.916,1.882-4.382,3.001-7.273,3.01c-2.89-0.009-5.366-1.128-7.273-3.01c-1.882-1.907-3.001-4.382-3.009-7.273
		c0.008-2.89,1.127-5.357,3.009-7.273c1.916-1.882,4.382-3,7.273-3.009c2.89,0.009,5.357,1.128,7.273,3.009
		c1.882,1.916,3.001,4.383,3.009,7.273C266.277,44.172,265.158,46.647,263.276,48.554z" style="fill: #fff;"></path>
	<path class="st0" d="M314.127,512c29.125,0,52.749-23.523,52.944-52.606c-33.5,6.145-69.948,9.57-104.889,9.926
		C266.972,493.648,288.4,512,314.127,512z" style="fill: #fff;"></path>
</g>
</svg>
